solid OpenSCAD_Model
  facet normal -0.980785 0 0.195094
    outer loop
      vertex 0.0598755 0 -6.0863
      vertex 0.23851 3 -5.18826
      vertex 0.0598755 3 -6.0863
    endloop
  endfacet
  facet normal -0.980785 0 0.195094
    outer loop
      vertex 0.23851 3 -5.18826
      vertex 0.0598755 0 -6.0863
      vertex 0.23851 0 -5.18826
    endloop
  endfacet
  facet normal -0.896868 0 -0.442299
    outer loop
      vertex 0.93782 0 -54.5
      vertex 0.532837 3 -53.6788
      vertex 0.93782 3 -54.5
    endloop
  endfacet
  facet normal -0.896868 -0 -0.442299
    outer loop
      vertex 0.532837 3 -53.6788
      vertex 0.93782 0 -54.5
      vertex 0.532837 0 -53.6788
    endloop
  endfacet
  facet normal -0.99786 0 0.0653906
    outer loop
      vertex 0 0 -7
      vertex 0.0598755 3 -6.0863
      vertex 0 3 -7
    endloop
  endfacet
  facet normal -0.99786 0 0.0653906
    outer loop
      vertex 0.0598755 3 -6.0863
      vertex 0 0 -7
      vertex 0.0598755 0 -6.0863
    endloop
  endfacet
  facet normal -0.946935 0 -0.321426
    outer loop
      vertex 0.532837 0 -53.6788
      vertex 0.23851 3 -52.8117
      vertex 0.532837 3 -53.6788
    endloop
  endfacet
  facet normal -0.946935 -0 -0.321426
    outer loop
      vertex 0.23851 3 -52.8117
      vertex 0.532837 0 -53.6788
      vertex 0.23851 0 -52.8117
    endloop
  endfacet
  facet normal -0.442222 0 -0.896906
    outer loop
      vertex 3.5 0 -57.0622
      vertex 4.32121 3 -57.4671
      vertex 4.32121 0 -57.4671
    endloop
  endfacet
  facet normal -0.442222 0 -0.896906
    outer loop
      vertex 4.32121 3 -57.4671
      vertex 3.5 0 -57.0622
      vertex 3.5 3 -57.0622
    endloop
  endfacet
  facet normal 0 0 -1
    outer loop
      vertex 7 0 -58
      vertex 125 3 -58
      vertex 125 0 -58
    endloop
  endfacet
  facet normal -0 0 -1
    outer loop
      vertex 125 3 -58
      vertex 7 0 -58
      vertex 7 3 -58
    endloop
  endfacet
  facet normal 0.831324 -0 0.555788
    outer loop
      vertex 130.553 0 -2.73866
      vertex 131.062 3 -3.5
      vertex 130.553 3 -2.73866
    endloop
  endfacet
  facet normal 0.831324 0 0.555788
    outer loop
      vertex 131.062 3 -3.5
      vertex 130.553 0 -2.73866
      vertex 131.062 0 -3.5
    endloop
  endfacet
  facet normal 0.0653692 0 0.997861
    outer loop
      vertex 125 3 0
      vertex 125.914 0 -0.0598755
      vertex 125.914 3 -0.0598755
    endloop
  endfacet
  facet normal 0.0653692 0 0.997861
    outer loop
      vertex 125.914 0 -0.0598755
      vertex 125 3 0
      vertex 125 0 0
    endloop
  endfacet
  facet normal 0.980708 -0 0.195478
    outer loop
      vertex 131.761 0 -5.18826
      vertex 131.94 3 -6.0863
      vertex 131.761 3 -5.18826
    endloop
  endfacet
  facet normal 0.980708 0 0.195478
    outer loop
      vertex 131.94 3 -6.0863
      vertex 131.761 0 -5.18826
      vertex 131.94 0 -6.0863
    endloop
  endfacet
  facet normal -0.555562 0 -0.831475
    outer loop
      vertex 2.73866 0 -56.5535
      vertex 3.5 3 -57.0622
      vertex 3.5 0 -57.0622
    endloop
  endfacet
  facet normal -0.555562 0 -0.831475
    outer loop
      vertex 3.5 3 -57.0622
      vertex 2.73866 0 -56.5535
      vertex 2.73866 3 -56.5535
    endloop
  endfacet
  facet normal 0.659033 0 0.752114
    outer loop
      vertex 129.261 3 -1.44652
      vertex 129.95 0 -2.05025
      vertex 129.95 3 -2.05025
    endloop
  endfacet
  facet normal 0.659033 0 0.752114
    outer loop
      vertex 129.95 0 -2.05025
      vertex 129.261 3 -1.44652
      vertex 129.261 0 -1.44652
    endloop
  endfacet
  facet normal 0.752225 0 -0.658907
    outer loop
      vertex 130.553 0 -55.2613
      vertex 129.95 3 -55.9497
      vertex 130.553 3 -55.2613
    endloop
  endfacet
  facet normal 0.752225 0 -0.658907
    outer loop
      vertex 129.95 3 -55.9497
      vertex 130.553 0 -55.2613
      vertex 129.95 0 -55.9497
    endloop
  endfacet
  facet normal -0.195057 0 -0.980792
    outer loop
      vertex 5.18826 0 -57.7615
      vertex 6.0863 3 -57.9401
      vertex 6.0863 0 -57.9401
    endloop
  endfacet
  facet normal -0.195057 0 -0.980792
    outer loop
      vertex 6.0863 3 -57.9401
      vertex 5.18826 0 -57.7615
      vertex 5.18826 3 -57.7615
    endloop
  endfacet
  facet normal -0.99786 0 -0.0653906
    outer loop
      vertex 0.0598755 0 -51.9137
      vertex 0 3 -51
      vertex 0.0598755 3 -51.9137
    endloop
  endfacet
  facet normal -0.99786 -0 -0.0653906
    outer loop
      vertex 0 3 -51
      vertex 0.0598755 0 -51.9137
      vertex 0 0 -51
    endloop
  endfacet
  facet normal -1 0 0
    outer loop
      vertex 0 0 -51
      vertex 0 3 -7
      vertex 0 3 -51
    endloop
  endfacet
  facet normal -1 -0 0
    outer loop
      vertex 0 3 -7
      vertex 0 0 -51
      vertex 0 0 -7
    endloop
  endfacet
  facet normal 0.997851 0 -0.0655259
    outer loop
      vertex 132 0 -51
      vertex 131.94 3 -51.9137
      vertex 132 3 -51
    endloop
  endfacet
  facet normal 0.997851 0 -0.0655259
    outer loop
      vertex 131.94 3 -51.9137
      vertex 132 0 -51
      vertex 131.94 0 -51.9137
    endloop
  endfacet
  facet normal -0.321443 0 0.946929
    outer loop
      vertex 4.32121 3 -0.532837
      vertex 5.18826 0 -0.23851
      vertex 5.18826 3 -0.23851
    endloop
  endfacet
  facet normal -0.321443 0 0.946929
    outer loop
      vertex 5.18826 0 -0.23851
      vertex 4.32121 3 -0.532837
      vertex 4.32121 0 -0.532837
    endloop
  endfacet
  facet normal 0.555733 0 0.831361
    outer loop
      vertex 128.5 3 -0.93782
      vertex 129.261 0 -1.44652
      vertex 129.261 3 -1.44652
    endloop
  endfacet
  facet normal 0.555733 0 0.831361
    outer loop
      vertex 129.261 0 -1.44652
      vertex 128.5 3 -0.93782
      vertex 128.5 0 -0.93782
    endloop
  endfacet
  facet normal -0.831475 0 0.555562
    outer loop
      vertex 0.93782 0 -3.5
      vertex 1.44652 3 -2.73866
      vertex 0.93782 3 -3.5
    endloop
  endfacet
  facet normal -0.831475 0 0.555562
    outer loop
      vertex 1.44652 3 -2.73866
      vertex 0.93782 0 -3.5
      vertex 1.44652 0 -2.73866
    endloop
  endfacet
  facet normal -0.831462 0 -0.555582
    outer loop
      vertex 1.44652 0 -55.2613
      vertex 0.93782 3 -54.5
      vertex 1.44652 3 -55.2613
    endloop
  endfacet
  facet normal -0.831462 -0 -0.555582
    outer loop
      vertex 0.93782 3 -54.5
      vertex 1.44652 0 -55.2613
      vertex 0.93782 0 -54.5
    endloop
  endfacet
  facet normal 0.89686 0 -0.442314
    outer loop
      vertex 131.467 0 -53.6788
      vertex 131.062 3 -54.5
      vertex 131.467 3 -53.6788
    endloop
  endfacet
  facet normal 0.89686 0 -0.442314
    outer loop
      vertex 131.062 3 -54.5
      vertex 131.467 0 -53.6788
      vertex 131.062 0 -54.5
    endloop
  endfacet
  facet normal -0 0 1
    outer loop
      vertex 72.5 3 0
      vertex 125 0 0
      vertex 125 3 0
    endloop
  endfacet
  facet normal 0 0 1
    outer loop
      vertex 125 0 0
      vertex 72.5 3 0
      vertex 72.5 0 0
    endloop
  endfacet
  facet normal -0 0 1
    outer loop
      vertex 7 3 0
      vertex 59.5 0 0
      vertex 59.5 3 0
    endloop
  endfacet
  facet normal 0 0 1
    outer loop
      vertex 59.5 0 0
      vertex 7 3 0
      vertex 7 0 0
    endloop
  endfacet
  facet normal -0.751829 0 -0.659358
    outer loop
      vertex 2.05025 0 -55.9497
      vertex 1.44652 3 -55.2613
      vertex 2.05025 3 -55.9497
    endloop
  endfacet
  facet normal -0.751829 -0 -0.659358
    outer loop
      vertex 1.44652 3 -55.2613
      vertex 2.05025 0 -55.9497
      vertex 1.44652 0 -55.2613
    endloop
  endfacet
  facet normal -0.659396 0 -0.751796
    outer loop
      vertex 2.05025 0 -55.9497
      vertex 2.73866 3 -56.5535
      vertex 2.73866 0 -56.5535
    endloop
  endfacet
  facet normal -0.659396 0 -0.751796
    outer loop
      vertex 2.73866 3 -56.5535
      vertex 2.05025 0 -55.9497
      vertex 2.05025 3 -55.9497
    endloop
  endfacet
  facet normal 1 -0 0
    outer loop
      vertex 132 0 -7
      vertex 132 3 -51
      vertex 132 3 -7
    endloop
  endfacet
  facet normal 1 0 0
    outer loop
      vertex 132 3 -51
      vertex 132 0 -7
      vertex 132 0 -51
    endloop
  endfacet
  facet normal 0.997851 -0 0.0655259
    outer loop
      vertex 131.94 0 -6.0863
      vertex 132 3 -7
      vertex 131.94 3 -6.0863
    endloop
  endfacet
  facet normal 0.997851 0 0.0655259
    outer loop
      vertex 132 3 -7
      vertex 131.94 0 -6.0863
      vertex 132 0 -7
    endloop
  endfacet
  facet normal -0.980783 0 -0.195102
    outer loop
      vertex 0.23851 0 -52.8117
      vertex 0.0598755 3 -51.9137
      vertex 0.23851 3 -52.8117
    endloop
  endfacet
  facet normal -0.980783 -0 -0.195102
    outer loop
      vertex 0.0598755 3 -51.9137
      vertex 0.23851 0 -52.8117
      vertex 0.0598755 0 -51.9137
    endloop
  endfacet
  facet normal 0.321531 0 -0.946899
    outer loop
      vertex 126.812 0 -57.7615
      vertex 127.679 3 -57.4671
      vertex 127.679 0 -57.4671
    endloop
  endfacet
  facet normal 0.321531 0 -0.946899
    outer loop
      vertex 127.679 3 -57.4671
      vertex 126.812 0 -57.7615
      vertex 126.812 3 -57.7615
    endloop
  endfacet
  facet normal 0.195066 0 -0.98079
    outer loop
      vertex 125.914 0 -57.9401
      vertex 126.812 3 -57.7615
      vertex 126.812 0 -57.7615
    endloop
  endfacet
  facet normal 0.195066 0 -0.98079
    outer loop
      vertex 126.812 3 -57.7615
      vertex 125.914 0 -57.9401
      vertex 125.914 3 -57.9401
    endloop
  endfacet
  facet normal 0.947038 -0 0.321122
    outer loop
      vertex 131.467 0 -4.32121
      vertex 131.761 3 -5.18826
      vertex 131.467 3 -4.32121
    endloop
  endfacet
  facet normal 0.947038 0 0.321122
    outer loop
      vertex 131.761 3 -5.18826
      vertex 131.467 0 -4.32121
      vertex 131.761 0 -5.18826
    endloop
  endfacet
  facet normal -0.0654172 0 -0.997858
    outer loop
      vertex 6.0863 0 -57.9401
      vertex 7 3 -58
      vertex 7 0 -58
    endloop
  endfacet
  facet normal -0.0654172 0 -0.997858
    outer loop
      vertex 7 3 -58
      vertex 6.0863 0 -57.9401
      vertex 6.0863 3 -57.9401
    endloop
  endfacet
  facet normal 0.83131 0 -0.555808
    outer loop
      vertex 131.062 0 -54.5
      vertex 130.553 3 -55.2613
      vertex 131.062 3 -54.5
    endloop
  endfacet
  facet normal 0.83131 0 -0.555808
    outer loop
      vertex 130.553 3 -55.2613
      vertex 131.062 0 -54.5
      vertex 130.553 0 -55.2613
    endloop
  endfacet
  facet normal 0.0653958 0 -0.997859
    outer loop
      vertex 125 0 -58
      vertex 125.914 3 -57.9401
      vertex 125.914 0 -57.9401
    endloop
  endfacet
  facet normal 0.0653958 0 -0.997859
    outer loop
      vertex 125.914 3 -57.9401
      vertex 125 0 -58
      vertex 125 3 -58
    endloop
  endfacet
  facet normal 0.555733 0 -0.831361
    outer loop
      vertex 128.5 0 -57.0622
      vertex 129.261 3 -56.5535
      vertex 129.261 0 -56.5535
    endloop
  endfacet
  facet normal 0.555733 0 -0.831361
    outer loop
      vertex 129.261 3 -56.5535
      vertex 128.5 0 -57.0622
      vertex 128.5 3 -57.0622
    endloop
  endfacet
  facet normal -0.946929 0 0.321443
    outer loop
      vertex 0.23851 0 -5.18826
      vertex 0.532837 3 -4.32121
      vertex 0.23851 3 -5.18826
    endloop
  endfacet
  facet normal -0.946929 0 0.321443
    outer loop
      vertex 0.532837 3 -4.32121
      vertex 0.23851 0 -5.18826
      vertex 0.532837 0 -4.32121
    endloop
  endfacet
  facet normal 0.947043 0 -0.321106
    outer loop
      vertex 131.761 0 -52.8117
      vertex 131.467 3 -53.6788
      vertex 131.761 3 -52.8117
    endloop
  endfacet
  facet normal 0.947043 0 -0.321106
    outer loop
      vertex 131.467 3 -53.6788
      vertex 131.761 0 -52.8117
      vertex 131.467 0 -53.6788
    endloop
  endfacet
  facet normal -0.321514 0 -0.946905
    outer loop
      vertex 4.32121 0 -57.4671
      vertex 5.18826 3 -57.7615
      vertex 5.18826 0 -57.7615
    endloop
  endfacet
  facet normal -0.321514 0 -0.946905
    outer loop
      vertex 5.18826 3 -57.7615
      vertex 4.32121 0 -57.4671
      vertex 4.32121 3 -57.4671
    endloop
  endfacet
  facet normal 0.980706 0 -0.195486
    outer loop
      vertex 131.94 0 -51.9137
      vertex 131.761 3 -52.8117
      vertex 131.94 3 -51.9137
    endloop
  endfacet
  facet normal 0.980706 0 -0.195486
    outer loop
      vertex 131.761 3 -52.8117
      vertex 131.94 0 -51.9137
      vertex 131.761 0 -52.8117
    endloop
  endfacet
  facet normal -0.442295 0 0.89687
    outer loop
      vertex 3.5 3 -0.93782
      vertex 4.32121 0 -0.532837
      vertex 4.32121 3 -0.532837
    endloop
  endfacet
  facet normal -0.442295 0 0.89687
    outer loop
      vertex 4.32121 0 -0.532837
      vertex 3.5 3 -0.93782
      vertex 3.5 0 -0.93782
    endloop
  endfacet
  facet normal -0.751834 0 0.659352
    outer loop
      vertex 1.44652 0 -2.73866
      vertex 2.05025 3 -2.05025
      vertex 1.44652 3 -2.73866
    endloop
  endfacet
  facet normal -0.751834 0 0.659352
    outer loop
      vertex 2.05025 3 -2.05025
      vertex 1.44652 0 -2.73866
      vertex 2.05025 0 -2.05025
    endloop
  endfacet
  facet normal 0.442313 0 -0.896861
    outer loop
      vertex 127.679 0 -57.4671
      vertex 128.5 3 -57.0622
      vertex 128.5 0 -57.0622
    endloop
  endfacet
  facet normal 0.442313 0 -0.896861
    outer loop
      vertex 128.5 3 -57.0622
      vertex 127.679 0 -57.4671
      vertex 127.679 3 -57.4671
    endloop
  endfacet
  facet normal 0.896862 -0 0.44231
    outer loop
      vertex 131.062 0 -3.5
      vertex 131.467 3 -4.32121
      vertex 131.062 3 -3.5
    endloop
  endfacet
  facet normal 0.896862 0 0.44231
    outer loop
      vertex 131.467 3 -4.32121
      vertex 131.062 0 -3.5
      vertex 131.467 0 -4.32121
    endloop
  endfacet
  facet normal 0.195102 0 0.980783
    outer loop
      vertex 125.914 3 -0.0598755
      vertex 126.812 0 -0.23851
      vertex 126.812 3 -0.23851
    endloop
  endfacet
  facet normal 0.195102 0 0.980783
    outer loop
      vertex 126.812 0 -0.23851
      vertex 125.914 3 -0.0598755
      vertex 125.914 0 -0.0598755
    endloop
  endfacet
  facet normal 0.321459 0 0.946923
    outer loop
      vertex 126.812 3 -0.23851
      vertex 127.679 0 -0.532837
      vertex 127.679 3 -0.532837
    endloop
  endfacet
  facet normal 0.321459 0 0.946923
    outer loop
      vertex 127.679 0 -0.532837
      vertex 126.812 3 -0.23851
      vertex 126.812 0 -0.23851
    endloop
  endfacet
  facet normal -0.195094 0 0.980785
    outer loop
      vertex 5.18826 3 -0.23851
      vertex 6.0863 0 -0.0598755
      vertex 6.0863 3 -0.0598755
    endloop
  endfacet
  facet normal -0.195094 0 0.980785
    outer loop
      vertex 6.0863 0 -0.0598755
      vertex 5.18826 3 -0.23851
      vertex 5.18826 0 -0.23851
    endloop
  endfacet
  facet normal 0.659076 0 -0.752076
    outer loop
      vertex 129.261 0 -56.5535
      vertex 129.95 3 -55.9497
      vertex 129.95 0 -55.9497
    endloop
  endfacet
  facet normal 0.659076 0 -0.752076
    outer loop
      vertex 129.95 3 -55.9497
      vertex 129.261 0 -56.5535
      vertex 129.261 3 -56.5535
    endloop
  endfacet
  facet normal 0.752229 -0 0.658901
    outer loop
      vertex 129.95 0 -2.05025
      vertex 130.553 3 -2.73866
      vertex 129.95 3 -2.05025
    endloop
  endfacet
  facet normal 0.752229 0 0.658901
    outer loop
      vertex 130.553 3 -2.73866
      vertex 129.95 0 -2.05025
      vertex 130.553 0 -2.73866
    endloop
  endfacet
  facet normal 0 -1 0
    outer loop
      vertex 0 0 -7
      vertex 7 0 0
      vertex 6.0863 0 -0.0598755
    endloop
  endfacet
  facet normal 0 -1 0
    outer loop
      vertex 0 0 -7
      vertex 6.0863 0 -0.0598755
      vertex 5.18826 0 -0.23851
    endloop
  endfacet
  facet normal 0 -1 0
    outer loop
      vertex 0 0 -7
      vertex 5.18826 0 -0.23851
      vertex 4.32121 0 -0.532837
    endloop
  endfacet
  facet normal 0 -1 0
    outer loop
      vertex 0 0 -7
      vertex 4.32121 0 -0.532837
      vertex 3.5 0 -0.93782
    endloop
  endfacet
  facet normal 0 -1 0
    outer loop
      vertex 7 0 0
      vertex 59.5 0 -1.2
      vertex 59.5 0 0
    endloop
  endfacet
  facet normal 0 -1 0
    outer loop
      vertex 7 0 0
      vertex 59.5154 0 -1.43494
      vertex 59.5 0 -1.2
    endloop
  endfacet
  facet normal 0 -1 0
    outer loop
      vertex 0 0 -7
      vertex 3.5 0 -0.93782
      vertex 2.73866 0 -1.44652
    endloop
  endfacet
  facet normal 0 -1 0
    outer loop
      vertex 7 0 0
      vertex 59.5613 0 -1.66586
      vertex 59.5154 0 -1.43494
    endloop
  endfacet
  facet normal 0 -1 0
    outer loop
      vertex 7 0 0
      vertex 59.637 0 -1.88882
      vertex 59.5613 0 -1.66586
    endloop
  endfacet
  facet normal 0 -1 0
    outer loop
      vertex 0 0 -7
      vertex 2.73866 0 -1.44652
      vertex 2.05025 0 -2.05025
    endloop
  endfacet
  facet normal 0 -1 0
    outer loop
      vertex 7 0 0
      vertex 59.7411 0 -2.09999
      vertex 59.637 0 -1.88882
    endloop
  endfacet
  facet normal 0 -1 0
    outer loop
      vertex 7 0 -58
      vertex 7 0 0
      vertex 0 0 -7
    endloop
  endfacet
  facet normal 0 -1 0
    outer loop
      vertex 7 0 0
      vertex 59.872 0 -2.29576
      vertex 59.7411 0 -2.09999
    endloop
  endfacet
  facet normal 0 -1 0
    outer loop
      vertex 7 0 0
      vertex 60.0272 0 -2.47278
      vertex 59.872 0 -2.29576
    endloop
  endfacet
  facet normal 0 -1 0
    outer loop
      vertex 0 0 -7
      vertex 2.05025 0 -2.05025
      vertex 1.44652 0 -2.73866
    endloop
  endfacet
  facet normal 0 -1 0
    outer loop
      vertex 7 0 0
      vertex 7 0 -58
      vertex 60.0272 0 -2.47278
    endloop
  endfacet
  facet normal 0 -1 -0
    outer loop
      vertex 60.0272 0 -2.47278
      vertex 7 0 -58
      vertex 60.2042 0 -2.62802
    endloop
  endfacet
  facet normal 0 -1 -0
    outer loop
      vertex 60.2042 0 -2.62802
      vertex 7 0 -58
      vertex 60.4 0 -2.75883
    endloop
  endfacet
  facet normal 0 -1 -0
    outer loop
      vertex 60.4 0 -2.75883
      vertex 7 0 -58
      vertex 60.6112 0 -2.86298
    endloop
  endfacet
  facet normal 0 -1 -0
    outer loop
      vertex 60.6112 0 -2.86298
      vertex 7 0 -58
      vertex 60.8341 0 -2.93866
    endloop
  endfacet
  facet normal 0 -1 -0
    outer loop
      vertex 60.8341 0 -2.93866
      vertex 7 0 -58
      vertex 61.065 0 -2.98459
    endloop
  endfacet
  facet normal 0 -1 0
    outer loop
      vertex 0 0 -7
      vertex 1.44652 0 -2.73866
      vertex 0.93782 0 -3.5
    endloop
  endfacet
  facet normal 0 -1 0
    outer loop
      vertex 72.5 0 -1.2
      vertex 125 0 0
      vertex 72.5 0 0
    endloop
  endfacet
  facet normal 0 -1 0
    outer loop
      vertex 72.4846 0 -1.43494
      vertex 125 0 0
      vertex 72.5 0 -1.2
    endloop
  endfacet
  facet normal 0 -1 0
    outer loop
      vertex 72.4387 0 -1.66586
      vertex 125 0 0
      vertex 72.4846 0 -1.43494
    endloop
  endfacet
  facet normal 0 -1 0
    outer loop
      vertex 72.363 0 -1.88882
      vertex 125 0 0
      vertex 72.4387 0 -1.66586
    endloop
  endfacet
  facet normal 0 -1 0
    outer loop
      vertex 72.2588 0 -2.09999
      vertex 125 0 0
      vertex 72.363 0 -1.88882
    endloop
  endfacet
  facet normal 0 -1 0
    outer loop
      vertex 72.128 0 -2.29576
      vertex 125 0 0
      vertex 72.2588 0 -2.09999
    endloop
  endfacet
  facet normal 0 -1 0
    outer loop
      vertex 71.9728 0 -2.47278
      vertex 125 0 0
      vertex 72.128 0 -2.29576
    endloop
  endfacet
  facet normal 0 -1 0
    outer loop
      vertex 125 0 -58
      vertex 125 0 0
      vertex 71.9728 0 -2.47278
    endloop
  endfacet
  facet normal 0 -1 0
    outer loop
      vertex 125.914 0 -0.0598755
      vertex 132 0 -7
      vertex 126.812 0 -0.23851
    endloop
  endfacet
  facet normal 0 -1 0
    outer loop
      vertex 127.679 0 -0.532837
      vertex 132 0 -7
      vertex 128.5 0 -0.93782
    endloop
  endfacet
  facet normal 0 -1 0
    outer loop
      vertex 128.5 0 -0.93782
      vertex 132 0 -7
      vertex 129.261 0 -1.44652
    endloop
  endfacet
  facet normal 0 -1 0
    outer loop
      vertex 126.812 0 -0.23851
      vertex 132 0 -7
      vertex 127.679 0 -0.532837
    endloop
  endfacet
  facet normal 0 -1 0
    outer loop
      vertex 125 0 0
      vertex 132 0 -7
      vertex 125.914 0 -0.0598755
    endloop
  endfacet
  facet normal 0 -1 0
    outer loop
      vertex 125 0 -58
      vertex 71.9728 0 -2.47278
      vertex 71.7958 0 -2.62802
    endloop
  endfacet
  facet normal 0 -1 0
    outer loop
      vertex 129.261 0 -1.44652
      vertex 132 0 -7
      vertex 129.95 0 -2.05025
    endloop
  endfacet
  facet normal 0 -1 0
    outer loop
      vertex 125 0 -58
      vertex 71.7958 0 -2.62802
      vertex 71.6 0 -2.75883
    endloop
  endfacet
  facet normal 0 -1 0
    outer loop
      vertex 125 0 -58
      vertex 71.6 0 -2.75883
      vertex 71.3888 0 -2.86298
    endloop
  endfacet
  facet normal 0 -1 0
    outer loop
      vertex 125 0 -58
      vertex 71.3888 0 -2.86298
      vertex 71.1659 0 -2.93866
    endloop
  endfacet
  facet normal 0 -1 0
    outer loop
      vertex 125 0 -58
      vertex 71.1659 0 -2.93866
      vertex 70.9349 0 -2.98459
    endloop
  endfacet
  facet normal 0 -1 0
    outer loop
      vertex 125 0 -58
      vertex 70.9349 0 -2.98459
      vertex 70.7 0 -3
    endloop
  endfacet
  facet normal 0 -1 -0
    outer loop
      vertex 61.065 0 -2.98459
      vertex 7 0 -58
      vertex 61.3 0 -3
    endloop
  endfacet
  facet normal 0 -1 -0
    outer loop
      vertex 61.3 0 -3
      vertex 7 0 -58
      vertex 70.7 0 -3
    endloop
  endfacet
  facet normal 0 -1 0
    outer loop
      vertex 0 0 -7
      vertex 0.93782 0 -3.5
      vertex 0.532837 0 -4.32121
    endloop
  endfacet
  facet normal 0 -1 0
    outer loop
      vertex 125 0 -58
      vertex 70.7 0 -3
      vertex 7 0 -58
    endloop
  endfacet
  facet normal 0 -1 0
    outer loop
      vertex 0 0 -7
      vertex 0.532837 0 -4.32121
      vertex 0.23851 0 -5.18826
    endloop
  endfacet
  facet normal 0 -1 0
    outer loop
      vertex 130.553 0 -2.73866
      vertex 132 0 -7
      vertex 131.062 0 -3.5
    endloop
  endfacet
  facet normal 0 -1 0
    outer loop
      vertex 0 0 -7
      vertex 0.23851 0 -5.18826
      vertex 0.0598755 0 -6.0863
    endloop
  endfacet
  facet normal 0 -1 0
    outer loop
      vertex 131.062 0 -3.5
      vertex 132 0 -7
      vertex 131.467 0 -4.32121
    endloop
  endfacet
  facet normal 0 -1 0
    outer loop
      vertex 131.467 0 -4.32121
      vertex 132 0 -7
      vertex 131.761 0 -5.18826
    endloop
  endfacet
  facet normal 0 -1 0
    outer loop
      vertex 131.761 0 -5.18826
      vertex 132 0 -7
      vertex 131.94 0 -6.0863
    endloop
  endfacet
  facet normal 0 -1 0
    outer loop
      vertex 7 0 -58
      vertex 0 0 -7
      vertex 0 0 -51
    endloop
  endfacet
  facet normal 0 -1 0
    outer loop
      vertex 125 0 0
      vertex 125 0 -58
      vertex 132 0 -7
    endloop
  endfacet
  facet normal 0 -1 0
    outer loop
      vertex 7 0 -58
      vertex 0 0 -51
      vertex 0.0598755 0 -51.9137
    endloop
  endfacet
  facet normal 0 -1 0
    outer loop
      vertex 129.95 0 -2.05025
      vertex 132 0 -7
      vertex 130.553 0 -2.73866
    endloop
  endfacet
  facet normal 0 -1 0
    outer loop
      vertex 7 0 -58
      vertex 0.0598755 0 -51.9137
      vertex 0.23851 0 -52.8117
    endloop
  endfacet
  facet normal 0 -1 -0
    outer loop
      vertex 132 0 -7
      vertex 125 0 -58
      vertex 132 0 -51
    endloop
  endfacet
  facet normal 0 -1 0
    outer loop
      vertex 7 0 -58
      vertex 0.23851 0 -52.8117
      vertex 0.532837 0 -53.6788
    endloop
  endfacet
  facet normal 0 -1 0
    outer loop
      vertex 132 0 -51
      vertex 125 0 -58
      vertex 131.94 0 -51.9137
    endloop
  endfacet
  facet normal 0 -1 0
    outer loop
      vertex 7 0 -58
      vertex 0.532837 0 -53.6788
      vertex 0.93782 0 -54.5
    endloop
  endfacet
  facet normal 0 -1 0
    outer loop
      vertex 131.94 0 -51.9137
      vertex 125 0 -58
      vertex 131.761 0 -52.8117
    endloop
  endfacet
  facet normal 0 -1 0
    outer loop
      vertex 7 0 -58
      vertex 0.93782 0 -54.5
      vertex 1.44652 0 -55.2613
    endloop
  endfacet
  facet normal 0 -1 0
    outer loop
      vertex 131.761 0 -52.8117
      vertex 125 0 -58
      vertex 131.467 0 -53.6788
    endloop
  endfacet
  facet normal 0 -1 0
    outer loop
      vertex 7 0 -58
      vertex 1.44652 0 -55.2613
      vertex 2.05025 0 -55.9497
    endloop
  endfacet
  facet normal 0 -1 0
    outer loop
      vertex 131.467 0 -53.6788
      vertex 125 0 -58
      vertex 131.062 0 -54.5
    endloop
  endfacet
  facet normal 0 -1 0
    outer loop
      vertex 7 0 -58
      vertex 2.05025 0 -55.9497
      vertex 2.73866 0 -56.5535
    endloop
  endfacet
  facet normal 0 -1 0
    outer loop
      vertex 131.062 0 -54.5
      vertex 125 0 -58
      vertex 130.553 0 -55.2613
    endloop
  endfacet
  facet normal 0 -1 0
    outer loop
      vertex 7 0 -58
      vertex 2.73866 0 -56.5535
      vertex 3.5 0 -57.0622
    endloop
  endfacet
  facet normal 0 -1 0
    outer loop
      vertex 130.553 0 -55.2613
      vertex 125 0 -58
      vertex 129.95 0 -55.9497
    endloop
  endfacet
  facet normal 0 -1 0
    outer loop
      vertex 7 0 -58
      vertex 3.5 0 -57.0622
      vertex 4.32121 0 -57.4671
    endloop
  endfacet
  facet normal 0 -1 0
    outer loop
      vertex 129.95 0 -55.9497
      vertex 125 0 -58
      vertex 129.261 0 -56.5535
    endloop
  endfacet
  facet normal 0 -1 0
    outer loop
      vertex 7 0 -58
      vertex 4.32121 0 -57.4671
      vertex 5.18826 0 -57.7615
    endloop
  endfacet
  facet normal 0 -1 0
    outer loop
      vertex 129.261 0 -56.5535
      vertex 125 0 -58
      vertex 128.5 0 -57.0622
    endloop
  endfacet
  facet normal 0 -1 0
    outer loop
      vertex 7 0 -58
      vertex 5.18826 0 -57.7615
      vertex 6.0863 0 -57.9401
    endloop
  endfacet
  facet normal 0 -1 0
    outer loop
      vertex 128.5 0 -57.0622
      vertex 125 0 -58
      vertex 127.679 0 -57.4671
    endloop
  endfacet
  facet normal 0 -1 0
    outer loop
      vertex 127.679 0 -57.4671
      vertex 125 0 -58
      vertex 126.812 0 -57.7615
    endloop
  endfacet
  facet normal 0 -1 0
    outer loop
      vertex 126.812 0 -57.7615
      vertex 125 0 -58
      vertex 125.914 0 -57.9401
    endloop
  endfacet
  facet normal -0.659352 0 0.751834
    outer loop
      vertex 2.05025 3 -2.05025
      vertex 2.73866 0 -1.44652
      vertex 2.73866 3 -1.44652
    endloop
  endfacet
  facet normal -0.659352 0 0.751834
    outer loop
      vertex 2.73866 0 -1.44652
      vertex 2.05025 3 -2.05025
      vertex 2.05025 0 -2.05025
    endloop
  endfacet
  facet normal -0.89687 0 0.442295
    outer loop
      vertex 0.532837 0 -4.32121
      vertex 0.93782 3 -3.5
      vertex 0.532837 3 -4.32121
    endloop
  endfacet
  facet normal -0.89687 0 0.442295
    outer loop
      vertex 0.93782 3 -3.5
      vertex 0.532837 0 -4.32121
      vertex 0.93782 0 -3.5
    endloop
  endfacet
  facet normal -0.0653906 0 0.99786
    outer loop
      vertex 6.0863 3 -0.0598755
      vertex 7 0 0
      vertex 7 3 0
    endloop
  endfacet
  facet normal -0.0653906 0 0.99786
    outer loop
      vertex 7 0 0
      vertex 6.0863 3 -0.0598755
      vertex 6.0863 0 -0.0598755
    endloop
  endfacet
  facet normal 0 1 0
    outer loop
      vertex 132 3 -7
      vertex 125 3 0
      vertex 125.914 3 -0.0598755
    endloop
  endfacet
  facet normal 0 1 0
    outer loop
      vertex 132 3 -7
      vertex 125.914 3 -0.0598755
      vertex 126.812 3 -0.23851
    endloop
  endfacet
  facet normal 0 1 0
    outer loop
      vertex 132 3 -7
      vertex 126.812 3 -0.23851
      vertex 127.679 3 -0.532837
    endloop
  endfacet
  facet normal 0 1 0
    outer loop
      vertex 132 3 -7
      vertex 127.679 3 -0.532837
      vertex 128.5 3 -0.93782
    endloop
  endfacet
  facet normal 0 1 0
    outer loop
      vertex 125 3 0
      vertex 72.5 3 -1.2
      vertex 72.5 3 0
    endloop
  endfacet
  facet normal 0 1 0
    outer loop
      vertex 125 3 0
      vertex 72.4846 3 -1.43494
      vertex 72.5 3 -1.2
    endloop
  endfacet
  facet normal 0 1 0
    outer loop
      vertex 132 3 -7
      vertex 128.5 3 -0.93782
      vertex 129.261 3 -1.44652
    endloop
  endfacet
  facet normal 0 1 0
    outer loop
      vertex 125 3 0
      vertex 72.4387 3 -1.66586
      vertex 72.4846 3 -1.43494
    endloop
  endfacet
  facet normal 0 1 0
    outer loop
      vertex 125 3 0
      vertex 72.363 3 -1.88882
      vertex 72.4387 3 -1.66586
    endloop
  endfacet
  facet normal 0 1 0
    outer loop
      vertex 132 3 -7
      vertex 129.261 3 -1.44652
      vertex 129.95 3 -2.05025
    endloop
  endfacet
  facet normal 0 1 0
    outer loop
      vertex 125 3 0
      vertex 72.2588 3 -2.09999
      vertex 72.363 3 -1.88882
    endloop
  endfacet
  facet normal 0 1 0
    outer loop
      vertex 125 3 -58
      vertex 125 3 0
      vertex 132 3 -7
    endloop
  endfacet
  facet normal 0 1 0
    outer loop
      vertex 125 3 0
      vertex 72.128 3 -2.29576
      vertex 72.2588 3 -2.09999
    endloop
  endfacet
  facet normal 0 1 0
    outer loop
      vertex 125 3 0
      vertex 71.9728 3 -2.47278
      vertex 72.128 3 -2.29576
    endloop
  endfacet
  facet normal 0 1 0
    outer loop
      vertex 132 3 -7
      vertex 129.95 3 -2.05025
      vertex 130.553 3 -2.73866
    endloop
  endfacet
  facet normal 0 1 0
    outer loop
      vertex 125 3 0
      vertex 125 3 -58
      vertex 71.9728 3 -2.47278
    endloop
  endfacet
  facet normal 0 1 0
    outer loop
      vertex 71.9728 3 -2.47278
      vertex 125 3 -58
      vertex 71.7958 3 -2.62802
    endloop
  endfacet
  facet normal 0 1 0
    outer loop
      vertex 71.7958 3 -2.62802
      vertex 125 3 -58
      vertex 71.6 3 -2.75883
    endloop
  endfacet
  facet normal 0 1 0
    outer loop
      vertex 71.6 3 -2.75883
      vertex 125 3 -58
      vertex 71.3888 3 -2.86298
    endloop
  endfacet
  facet normal 0 1 0
    outer loop
      vertex 71.3888 3 -2.86298
      vertex 125 3 -58
      vertex 71.1659 3 -2.93866
    endloop
  endfacet
  facet normal 0 1 0
    outer loop
      vertex 71.1659 3 -2.93866
      vertex 125 3 -58
      vertex 70.9349 3 -2.98459
    endloop
  endfacet
  facet normal 0 1 0
    outer loop
      vertex 132 3 -7
      vertex 130.553 3 -2.73866
      vertex 131.062 3 -3.5
    endloop
  endfacet
  facet normal 0 1 -0
    outer loop
      vertex 59.5 3 -1.2
      vertex 7 3 0
      vertex 59.5 3 0
    endloop
  endfacet
  facet normal 0 1 0
    outer loop
      vertex 59.5154 3 -1.43494
      vertex 7 3 0
      vertex 59.5 3 -1.2
    endloop
  endfacet
  facet normal 0 1 0
    outer loop
      vertex 59.5613 3 -1.66586
      vertex 7 3 0
      vertex 59.5154 3 -1.43494
    endloop
  endfacet
  facet normal 0 1 0
    outer loop
      vertex 59.637 3 -1.88882
      vertex 7 3 0
      vertex 59.5613 3 -1.66586
    endloop
  endfacet
  facet normal 0 1 0
    outer loop
      vertex 59.7411 3 -2.09999
      vertex 7 3 0
      vertex 59.637 3 -1.88882
    endloop
  endfacet
  facet normal 0 1 0
    outer loop
      vertex 59.872 3 -2.29576
      vertex 7 3 0
      vertex 59.7411 3 -2.09999
    endloop
  endfacet
  facet normal 0 1 0
    outer loop
      vertex 60.0272 3 -2.47278
      vertex 7 3 0
      vertex 59.872 3 -2.29576
    endloop
  endfacet
  facet normal 0 1 0
    outer loop
      vertex 7 3 -58
      vertex 7 3 0
      vertex 60.0272 3 -2.47278
    endloop
  endfacet
  facet normal 0 1 0
    outer loop
      vertex 6.0863 3 -0.0598755
      vertex 0 3 -7
      vertex 5.18826 3 -0.23851
    endloop
  endfacet
  facet normal 0 1 0
    outer loop
      vertex 4.32121 3 -0.532837
      vertex 0 3 -7
      vertex 3.5 3 -0.93782
    endloop
  endfacet
  facet normal 0 1 0
    outer loop
      vertex 3.5 3 -0.93782
      vertex 0 3 -7
      vertex 2.73866 3 -1.44652
    endloop
  endfacet
  facet normal 0 1 0
    outer loop
      vertex 5.18826 3 -0.23851
      vertex 0 3 -7
      vertex 4.32121 3 -0.532837
    endloop
  endfacet
  facet normal 0 1 0
    outer loop
      vertex 7 3 0
      vertex 0 3 -7
      vertex 6.0863 3 -0.0598755
    endloop
  endfacet
  facet normal 0 1 0
    outer loop
      vertex 7 3 -58
      vertex 60.0272 3 -2.47278
      vertex 60.2042 3 -2.62802
    endloop
  endfacet
  facet normal 0 1 0
    outer loop
      vertex 2.73866 3 -1.44652
      vertex 0 3 -7
      vertex 2.05025 3 -2.05025
    endloop
  endfacet
  facet normal 0 1 0
    outer loop
      vertex 7 3 -58
      vertex 60.2042 3 -2.62802
      vertex 60.4 3 -2.75883
    endloop
  endfacet
  facet normal 0 1 0
    outer loop
      vertex 7 3 -58
      vertex 60.4 3 -2.75883
      vertex 60.6112 3 -2.86298
    endloop
  endfacet
  facet normal 0 1 0
    outer loop
      vertex 7 3 -58
      vertex 60.6112 3 -2.86298
      vertex 60.8341 3 -2.93866
    endloop
  endfacet
  facet normal 0 1 0
    outer loop
      vertex 7 3 -58
      vertex 60.8341 3 -2.93866
      vertex 61.065 3 -2.98459
    endloop
  endfacet
  facet normal 0 1 0
    outer loop
      vertex 7 3 -58
      vertex 61.065 3 -2.98459
      vertex 61.3 3 -3
    endloop
  endfacet
  facet normal 0 1 0
    outer loop
      vertex 70.9349 3 -2.98459
      vertex 125 3 -58
      vertex 70.7 3 -3
    endloop
  endfacet
  facet normal 0 1 0
    outer loop
      vertex 70.7 3 -3
      vertex 125 3 -58
      vertex 61.3 3 -3
    endloop
  endfacet
  facet normal 0 1 0
    outer loop
      vertex 132 3 -7
      vertex 131.062 3 -3.5
      vertex 131.467 3 -4.32121
    endloop
  endfacet
  facet normal 0 1 0
    outer loop
      vertex 7 3 -58
      vertex 61.3 3 -3
      vertex 125 3 -58
    endloop
  endfacet
  facet normal 0 1 0
    outer loop
      vertex 132 3 -7
      vertex 131.467 3 -4.32121
      vertex 131.761 3 -5.18826
    endloop
  endfacet
  facet normal 0 1 0
    outer loop
      vertex 1.44652 3 -2.73866
      vertex 0 3 -7
      vertex 0.93782 3 -3.5
    endloop
  endfacet
  facet normal 0 1 0
    outer loop
      vertex 132 3 -7
      vertex 131.761 3 -5.18826
      vertex 131.94 3 -6.0863
    endloop
  endfacet
  facet normal 0 1 0
    outer loop
      vertex 0.93782 3 -3.5
      vertex 0 3 -7
      vertex 0.532837 3 -4.32121
    endloop
  endfacet
  facet normal 0 1 0
    outer loop
      vertex 0.532837 3 -4.32121
      vertex 0 3 -7
      vertex 0.23851 3 -5.18826
    endloop
  endfacet
  facet normal 0 1 0
    outer loop
      vertex 0.23851 3 -5.18826
      vertex 0 3 -7
      vertex 0.0598755 3 -6.0863
    endloop
  endfacet
  facet normal 0 1 0
    outer loop
      vertex 125 3 -58
      vertex 132 3 -7
      vertex 132 3 -51
    endloop
  endfacet
  facet normal 0 1 0
    outer loop
      vertex 7 3 0
      vertex 7 3 -58
      vertex 0 3 -7
    endloop
  endfacet
  facet normal 0 1 0
    outer loop
      vertex 125 3 -58
      vertex 132 3 -51
      vertex 131.94 3 -51.9137
    endloop
  endfacet
  facet normal 0 1 0
    outer loop
      vertex 2.05025 3 -2.05025
      vertex 0 3 -7
      vertex 1.44652 3 -2.73866
    endloop
  endfacet
  facet normal 0 1 0
    outer loop
      vertex 125 3 -58
      vertex 131.94 3 -51.9137
      vertex 131.761 3 -52.8117
    endloop
  endfacet
  facet normal 0 1 0
    outer loop
      vertex 0 3 -7
      vertex 7 3 -58
      vertex 0 3 -51
    endloop
  endfacet
  facet normal 0 1 0
    outer loop
      vertex 125 3 -58
      vertex 131.761 3 -52.8117
      vertex 131.467 3 -53.6788
    endloop
  endfacet
  facet normal 0 1 0
    outer loop
      vertex 0 3 -51
      vertex 7 3 -58
      vertex 0.0598755 3 -51.9137
    endloop
  endfacet
  facet normal 0 1 0
    outer loop
      vertex 125 3 -58
      vertex 131.467 3 -53.6788
      vertex 131.062 3 -54.5
    endloop
  endfacet
  facet normal 0 1 0
    outer loop
      vertex 0.0598755 3 -51.9137
      vertex 7 3 -58
      vertex 0.23851 3 -52.8117
    endloop
  endfacet
  facet normal 0 1 0
    outer loop
      vertex 125 3 -58
      vertex 131.062 3 -54.5
      vertex 130.553 3 -55.2613
    endloop
  endfacet
  facet normal 0 1 0
    outer loop
      vertex 0.23851 3 -52.8117
      vertex 7 3 -58
      vertex 0.532837 3 -53.6788
    endloop
  endfacet
  facet normal 0 1 0
    outer loop
      vertex 125 3 -58
      vertex 130.553 3 -55.2613
      vertex 129.95 3 -55.9497
    endloop
  endfacet
  facet normal 0 1 0
    outer loop
      vertex 0.532837 3 -53.6788
      vertex 7 3 -58
      vertex 0.93782 3 -54.5
    endloop
  endfacet
  facet normal 0 1 0
    outer loop
      vertex 125 3 -58
      vertex 129.95 3 -55.9497
      vertex 129.261 3 -56.5535
    endloop
  endfacet
  facet normal 0 1 0
    outer loop
      vertex 0.93782 3 -54.5
      vertex 7 3 -58
      vertex 1.44652 3 -55.2613
    endloop
  endfacet
  facet normal 0 1 0
    outer loop
      vertex 125 3 -58
      vertex 129.261 3 -56.5535
      vertex 128.5 3 -57.0622
    endloop
  endfacet
  facet normal 0 1 0
    outer loop
      vertex 1.44652 3 -55.2613
      vertex 7 3 -58
      vertex 2.05025 3 -55.9497
    endloop
  endfacet
  facet normal 0 1 0
    outer loop
      vertex 125 3 -58
      vertex 128.5 3 -57.0622
      vertex 127.679 3 -57.4671
    endloop
  endfacet
  facet normal 0 1 0
    outer loop
      vertex 2.05025 3 -55.9497
      vertex 7 3 -58
      vertex 2.73866 3 -56.5535
    endloop
  endfacet
  facet normal 0 1 0
    outer loop
      vertex 125 3 -58
      vertex 127.679 3 -57.4671
      vertex 126.812 3 -57.7615
    endloop
  endfacet
  facet normal 0 1 0
    outer loop
      vertex 2.73866 3 -56.5535
      vertex 7 3 -58
      vertex 3.5 3 -57.0622
    endloop
  endfacet
  facet normal 0 1 0
    outer loop
      vertex 125 3 -58
      vertex 126.812 3 -57.7615
      vertex 125.914 3 -57.9401
    endloop
  endfacet
  facet normal 0 1 0
    outer loop
      vertex 3.5 3 -57.0622
      vertex 7 3 -58
      vertex 4.32121 3 -57.4671
    endloop
  endfacet
  facet normal 0 1 0
    outer loop
      vertex 4.32121 3 -57.4671
      vertex 7 3 -58
      vertex 5.18826 3 -57.7615
    endloop
  endfacet
  facet normal 0 1 0
    outer loop
      vertex 5.18826 3 -57.7615
      vertex 7 3 -58
      vertex 6.0863 3 -57.9401
    endloop
  endfacet
  facet normal -0.555562 0 0.831475
    outer loop
      vertex 2.73866 3 -1.44652
      vertex 3.5 0 -0.93782
      vertex 3.5 3 -0.93782
    endloop
  endfacet
  facet normal -0.555562 0 0.831475
    outer loop
      vertex 3.5 0 -0.93782
      vertex 2.73866 3 -1.44652
      vertex 2.73866 0 -1.44652
    endloop
  endfacet
  facet normal 0.442386 0 0.896825
    outer loop
      vertex 127.679 3 -0.532837
      vertex 128.5 0 -0.93782
      vertex 128.5 3 -0.93782
    endloop
  endfacet
  facet normal 0.442386 0 0.896825
    outer loop
      vertex 128.5 0 -0.93782
      vertex 127.679 3 -0.532837
      vertex 127.679 0 -0.532837
    endloop
  endfacet
  facet normal -0 0 1
    outer loop
      vertex 61.3 3 -3
      vertex 70.7 0 -3
      vertex 70.7 3 -3
    endloop
  endfacet
  facet normal 0 0 1
    outer loop
      vertex 70.7 0 -3
      vertex 61.3 3 -3
      vertex 61.3 0 -3
    endloop
  endfacet
  facet normal 0.195095 0 0.980784
    outer loop
      vertex 60.8341 3 -2.93866
      vertex 61.065 0 -2.98459
      vertex 61.065 3 -2.98459
    endloop
  endfacet
  facet normal 0.195095 0 0.980784
    outer loop
      vertex 61.065 0 -2.98459
      vertex 60.8341 3 -2.93866
      vertex 60.8341 0 -2.93866
    endloop
  endfacet
  facet normal 0.997859 -0 0.0654083
    outer loop
      vertex 59.5 0 -1.2
      vertex 59.5154 3 -1.43494
      vertex 59.5 3 -1.2
    endloop
  endfacet
  facet normal 0.997859 0 0.0654083
    outer loop
      vertex 59.5154 3 -1.43494
      vertex 59.5 0 -1.2
      vertex 59.5154 0 -1.43494
    endloop
  endfacet
  facet normal 0.0654339 0 0.997857
    outer loop
      vertex 61.065 3 -2.98459
      vertex 61.3 0 -3
      vertex 61.3 3 -3
    endloop
  endfacet
  facet normal 0.0654339 0 0.997857
    outer loop
      vertex 61.3 0 -3
      vertex 61.065 3 -2.98459
      vertex 61.065 0 -2.98459
    endloop
  endfacet
  facet normal -0.896767 0 0.442502
    outer loop
      vertex 72.2588 0 -2.09999
      vertex 72.363 3 -1.88882
      vertex 72.2588 3 -2.09999
    endloop
  endfacet
  facet normal -0.896767 0 0.442502
    outer loop
      vertex 72.363 3 -1.88882
      vertex 72.2588 0 -2.09999
      vertex 72.363 0 -1.88882
    endloop
  endfacet
  facet normal -0.195014 0 0.980801
    outer loop
      vertex 70.9349 3 -2.98459
      vertex 71.1659 0 -2.93866
      vertex 71.1659 3 -2.93866
    endloop
  endfacet
  facet normal -0.195014 0 0.980801
    outer loop
      vertex 71.1659 0 -2.93866
      vertex 70.9349 3 -2.98459
      vertex 70.9349 0 -2.98459
    endloop
  endfacet
  facet normal -0.94691 0 0.321498
    outer loop
      vertex 72.363 0 -1.88882
      vertex 72.4387 3 -1.66586
      vertex 72.363 3 -1.88882
    endloop
  endfacet
  facet normal -0.94691 0 0.321498
    outer loop
      vertex 72.4387 3 -1.66586
      vertex 72.363 0 -1.88882
      vertex 72.4387 0 -1.66586
    endloop
  endfacet
  facet normal 1 -0 0
    outer loop
      vertex 59.5 0 0
      vertex 59.5 3 -1.2
      vertex 59.5 3 0
    endloop
  endfacet
  facet normal 1 0 0
    outer loop
      vertex 59.5 3 -1.2
      vertex 59.5 0 0
      vertex 59.5 0 -1.2
    endloop
  endfacet
  facet normal 0.980812 -0 0.194956
    outer loop
      vertex 59.5154 0 -1.43494
      vertex 59.5613 3 -1.66586
      vertex 59.5154 3 -1.43494
    endloop
  endfacet
  facet normal 0.980812 0 0.194956
    outer loop
      vertex 59.5613 3 -1.66586
      vertex 59.5154 0 -1.43494
      vertex 59.5613 0 -1.66586
    endloop
  endfacet
  facet normal -0.442281 0 0.896877
    outer loop
      vertex 71.3888 3 -2.86298
      vertex 71.6 0 -2.75883
      vertex 71.6 3 -2.75883
    endloop
  endfacet
  facet normal -0.442281 0 0.896877
    outer loop
      vertex 71.6 0 -2.75883
      vertex 71.3888 3 -2.86298
      vertex 71.3888 0 -2.86298
    endloop
  endfacet
  facet normal -1 0 0
    outer loop
      vertex 72.5 0 -1.2
      vertex 72.5 3 0
      vertex 72.5 3 -1.2
    endloop
  endfacet
  facet normal -1 -0 0
    outer loop
      vertex 72.5 3 0
      vertex 72.5 0 -1.2
      vertex 72.5 0 0
    endloop
  endfacet
  facet normal 0.94691 -0 0.321498
    outer loop
      vertex 59.5613 0 -1.66586
      vertex 59.637 3 -1.88882
      vertex 59.5613 3 -1.66586
    endloop
  endfacet
  facet normal 0.94691 0 0.321498
    outer loop
      vertex 59.637 3 -1.88882
      vertex 59.5613 0 -1.66586
      vertex 59.637 0 -1.88882
    endloop
  endfacet
  facet normal 0.896936 -0 0.44216
    outer loop
      vertex 59.637 0 -1.88882
      vertex 59.7411 3 -2.09999
      vertex 59.637 3 -1.88882
    endloop
  endfacet
  facet normal 0.896936 0 0.44216
    outer loop
      vertex 59.7411 3 -2.09999
      vertex 59.637 0 -1.88882
      vertex 59.7411 0 -2.09999
    endloop
  endfacet
  facet normal 0.831292 -0 0.555836
    outer loop
      vertex 59.7411 0 -2.09999
      vertex 59.872 3 -2.29576
      vertex 59.7411 3 -2.09999
    endloop
  endfacet
  facet normal 0.831292 0 0.555836
    outer loop
      vertex 59.872 3 -2.29576
      vertex 59.7411 0 -2.09999
      vertex 59.872 0 -2.29576
    endloop
  endfacet
  facet normal -0.831488 0 0.555543
    outer loop
      vertex 72.128 0 -2.29576
      vertex 72.2588 3 -2.09999
      vertex 72.128 3 -2.29576
    endloop
  endfacet
  facet normal -0.831488 0 0.555543
    outer loop
      vertex 72.2588 3 -2.09999
      vertex 72.128 0 -2.29576
      vertex 72.2588 0 -2.09999
    endloop
  endfacet
  facet normal -0.0654617 0 0.997855
    outer loop
      vertex 70.7 3 -3
      vertex 70.9349 0 -2.98459
      vertex 70.9349 3 -2.98459
    endloop
  endfacet
  facet normal -0.0654617 0 0.997855
    outer loop
      vertex 70.9349 0 -2.98459
      vertex 70.7 3 -3
      vertex 70.7 0 -3
    endloop
  endfacet
  facet normal 0.321499 0 0.94691
    outer loop
      vertex 60.6112 3 -2.86298
      vertex 60.8341 0 -2.93866
      vertex 60.8341 3 -2.93866
    endloop
  endfacet
  facet normal 0.321499 0 0.94691
    outer loop
      vertex 60.8341 0 -2.93866
      vertex 60.6112 3 -2.86298
      vertex 60.6112 0 -2.86298
    endloop
  endfacet
  facet normal 0.751929 -0 0.659244
    outer loop
      vertex 59.872 0 -2.29576
      vertex 60.0272 3 -2.47278
      vertex 59.872 3 -2.29576
    endloop
  endfacet
  facet normal 0.751929 0 0.659244
    outer loop
      vertex 60.0272 3 -2.47278
      vertex 59.872 0 -2.29576
      vertex 60.0272 0 -2.47278
    endloop
  endfacet
  facet normal -0.321499 0 0.94691
    outer loop
      vertex 71.1659 3 -2.93866
      vertex 71.3888 0 -2.86298
      vertex 71.3888 3 -2.86298
    endloop
  endfacet
  facet normal -0.321499 0 0.94691
    outer loop
      vertex 71.3888 0 -2.86298
      vertex 71.1659 3 -2.93866
      vertex 71.1659 0 -2.93866
    endloop
  endfacet
  facet normal -0.997859 0 0.0654083
    outer loop
      vertex 72.4846 0 -1.43494
      vertex 72.5 3 -1.2
      vertex 72.4846 3 -1.43494
    endloop
  endfacet
  facet normal -0.997859 0 0.0654083
    outer loop
      vertex 72.5 3 -1.2
      vertex 72.4846 0 -1.43494
      vertex 72.5 0 -1.2
    endloop
  endfacet
  facet normal 0.555513 0 0.831508
    outer loop
      vertex 60.2042 3 -2.62802
      vertex 60.4 0 -2.75883
      vertex 60.4 3 -2.75883
    endloop
  endfacet
  facet normal 0.555513 0 0.831508
    outer loop
      vertex 60.4 0 -2.75883
      vertex 60.2042 3 -2.62802
      vertex 60.2042 0 -2.62802
    endloop
  endfacet
  facet normal -0.980812 0 0.194956
    outer loop
      vertex 72.4387 0 -1.66586
      vertex 72.4846 3 -1.43494
      vertex 72.4387 3 -1.66586
    endloop
  endfacet
  facet normal -0.980812 0 0.194956
    outer loop
      vertex 72.4846 3 -1.43494
      vertex 72.4387 0 -1.66586
      vertex 72.4846 0 -1.43494
    endloop
  endfacet
  facet normal -0.751929 0 0.659244
    outer loop
      vertex 71.9728 0 -2.47278
      vertex 72.128 3 -2.29576
      vertex 71.9728 3 -2.47278
    endloop
  endfacet
  facet normal -0.751929 0 0.659244
    outer loop
      vertex 72.128 3 -2.29576
      vertex 71.9728 0 -2.47278
      vertex 72.128 0 -2.29576
    endloop
  endfacet
  facet normal 0.442281 0 0.896877
    outer loop
      vertex 60.4 3 -2.75883
      vertex 60.6112 0 -2.86298
      vertex 60.6112 3 -2.86298
    endloop
  endfacet
  facet normal 0.442281 0 0.896877
    outer loop
      vertex 60.6112 0 -2.86298
      vertex 60.4 3 -2.75883
      vertex 60.4 0 -2.75883
    endloop
  endfacet
  facet normal 0.659382 0 0.751808
    outer loop
      vertex 60.0272 3 -2.47278
      vertex 60.2042 0 -2.62802
      vertex 60.2042 3 -2.62802
    endloop
  endfacet
  facet normal 0.659382 0 0.751808
    outer loop
      vertex 60.2042 0 -2.62802
      vertex 60.0272 3 -2.47278
      vertex 60.0272 0 -2.47278
    endloop
  endfacet
  facet normal -0.555513 0 0.831508
    outer loop
      vertex 71.6 3 -2.75883
      vertex 71.7958 0 -2.62802
      vertex 71.7958 3 -2.62802
    endloop
  endfacet
  facet normal -0.555513 0 0.831508
    outer loop
      vertex 71.7958 0 -2.62802
      vertex 71.6 3 -2.75883
      vertex 71.6 0 -2.75883
    endloop
  endfacet
  facet normal -0.659382 0 0.751808
    outer loop
      vertex 71.7958 3 -2.62802
      vertex 71.9728 0 -2.47278
      vertex 71.9728 3 -2.47278
    endloop
  endfacet
  facet normal -0.659382 0 0.751808
    outer loop
      vertex 71.9728 0 -2.47278
      vertex 71.7958 3 -2.62802
      vertex 71.7958 0 -2.62802
    endloop
  endfacet
endsolid OpenSCAD_Model
